<svg width="76" height="76" viewBox="0 0 76 76" fill="none" xmlns="http://www.w3.org/2000/svg">
<path fill-rule="evenodd" clip-rule="evenodd" d="M70.2756 2.53559L67.9732 3.48874C67.6565 3.59312 67.3837 3.80013 67.198 4.07695C67.0123 4.35377 66.9244 4.68458 66.9483 5.01695V11.8545H9.05139V5.02481C9.0766 4.69219 8.98925 4.36075 8.80339 4.08363C8.61752 3.80652 8.34389 3.59981 8.02638 3.49663L5.72408 2.54345C5.72408 2.54345 5.0854 2.11807 5.90541 1.75572L9.94234 0.235391C10.4528 0.0806431 10.9866 0.0166604 11.5193 0.0463422H64.5513C65.0683 0.0199299 65.586 0.0839018 66.0809 0.235391L70.1179 1.75572C70.9142 2.1102 70.2756 2.53559 70.2756 2.53559Z" fill="#FCD20A"/>
<path fill-rule="evenodd" clip-rule="evenodd" d="M70.2756 2.53571L66.0573 0.960242C65.5594 0.804652 65.0414 0.722366 64.5198 0.716022H11.4877C10.9902 0.718272 10.4967 0.806225 10.0291 0.975988L5.72408 2.5042C5.72408 2.5042 5.0854 2.07882 5.90541 1.71646L9.94234 0.196137C10.4528 0.0413894 10.9866 -0.0226173 11.5193 0.00706445H64.5513C65.0683 -0.0193479 65.586 0.0446481 66.0809 0.196137L70.1179 1.71646C70.9142 2.11033 70.2756 2.53571 70.2756 2.53571Z" fill="#FBE801"/>
<path fill-rule="evenodd" clip-rule="evenodd" d="M5.48792 2.18174V8.32607L9.28831 5.86834C9.28831 5.86834 10.0137 3.85173 8.20812 3.05611L5.48792 2.18174Z" fill="#F0A123"/>
<path fill-rule="evenodd" clip-rule="evenodd" d="M5.48792 2.18174V2.55198L8.17658 3.43424C9.651 3.96202 9.25677 5.86834 9.25677 5.86834C9.25677 5.86834 9.98216 3.85173 8.17658 3.05611L5.48792 2.18174Z" fill="#F7DE03"/>
<path fill-rule="evenodd" clip-rule="evenodd" d="M67.8157 3.04825C66.018 3.83599 66.7355 5.86834 66.7355 5.86834L70.5122 8.32607V2.18174L67.8157 3.04825Z" fill="#F0A123"/>
<path fill-rule="evenodd" clip-rule="evenodd" d="M67.8157 3.05611C66.018 3.84385 66.7355 5.86834 66.7355 5.86834C66.7355 5.86834 66.3413 3.96202 67.8157 3.43424L70.5122 2.55198V2.18174L67.8157 3.05611Z" fill="#F7DE03"/>
<path fill-rule="evenodd" clip-rule="evenodd" d="M76 11.5237V71.817C75.9979 72.369 75.8869 72.9152 75.6733 73.4243C75.4597 73.9335 75.1477 74.3955 74.7552 74.7841C74.3626 75.1726 73.8973 75.4799 73.3857 75.6886C72.8741 75.8972 72.3264 76.003 71.7738 75.9998H4.21828C3.66611 76.003 3.11876 75.8971 2.60762 75.6884C2.09649 75.4797 1.63163 75.1722 1.23972 74.7836C0.84781 74.395 0.536556 73.9328 0.323814 73.4238C0.111073 72.9147 0.00102915 72.3686 0 71.817V11.5237H76Z" fill="url(#paint0_linear_5_23261)"/>
<path d="M76 11.8463H0V12.8231H76V11.8463Z" fill="#F7F3B7"/>
<path fill-rule="evenodd" clip-rule="evenodd" d="M53.797 3.97679C54.1875 3.97367 54.5701 4.08651 54.8963 4.30099C55.2226 4.51548 55.4776 4.82196 55.6293 5.18152C55.7809 5.54109 55.8222 5.93753 55.7479 6.32058C55.6736 6.70362 55.4872 7.05599 55.2121 7.33299C54.9371 7.60998 54.5859 7.79913 54.2031 7.87641C53.8203 7.95368 53.4232 7.91561 53.0621 7.76703C52.701 7.61845 52.3922 7.36606 52.1749 7.04187C51.9576 6.71768 51.8416 6.3363 51.8416 5.94613C51.8405 5.68855 51.8903 5.43329 51.988 5.19491C52.0857 4.95654 52.2294 4.73972 52.411 4.55685C52.5926 4.37398 52.8084 4.22864 53.0462 4.12911C53.284 4.02958 53.5391 3.97783 53.797 3.97679Z" fill="#AF8E2F"/>
<path fill-rule="evenodd" clip-rule="evenodd" d="M53.797 3.97697C54.0548 3.978 54.3099 4.02976 54.5477 4.12928C54.7855 4.22881 55.0013 4.37415 55.1829 4.55702C55.3645 4.73989 55.5082 4.95671 55.6059 5.19509C55.7036 5.43346 55.7534 5.68872 55.7523 5.94631C55.7179 5.46069 55.4934 5.00816 55.1274 4.68674C54.7614 4.36532 54.2834 4.2009 53.797 4.22905C53.5556 4.21302 53.3134 4.24478 53.0844 4.32249C52.8553 4.4002 52.6439 4.52233 52.4622 4.68189C52.2805 4.84144 52.1322 5.03527 52.0257 5.25225C51.9192 5.46924 51.8566 5.7051 51.8416 5.94631C51.8405 5.68872 51.8903 5.43346 51.988 5.19509C52.0857 4.95671 52.2294 4.73989 52.411 4.55702C52.5926 4.37415 52.8084 4.22881 53.0462 4.12928C53.284 4.02976 53.5391 3.978 53.797 3.97697Z" fill="#937A2D"/>
<path fill-rule="evenodd" clip-rule="evenodd" d="M22.2033 3.97675C22.5935 3.97519 22.9753 4.08935 23.3005 4.30479C23.6257 4.52024 23.8796 4.82727 24.03 5.18698C24.1804 5.54669 24.2206 5.9429 24.1454 6.32543C24.0702 6.70797 23.8831 7.0596 23.6078 7.3358C23.3324 7.61201 22.9812 7.80036 22.5986 7.87699C22.216 7.95361 21.8193 7.91508 21.4586 7.76626C21.098 7.61744 20.7897 7.36503 20.5728 7.041C20.3558 6.71698 20.24 6.33592 20.24 5.94609C20.239 5.68784 20.289 5.43192 20.3872 5.19304C20.4854 4.95415 20.6298 4.73701 20.8122 4.55404C20.9946 4.37106 21.2114 4.22587 21.4501 4.1268C21.6888 4.02774 21.9448 3.97674 22.2033 3.97675Z" fill="#AF8E2F"/>
<path fill-rule="evenodd" clip-rule="evenodd" d="M22.2033 3.97697C22.4611 3.978 22.7162 4.02976 22.954 4.12928C23.1918 4.22881 23.4076 4.37415 23.5892 4.55702C23.7708 4.73989 23.9145 4.95671 24.0122 5.19509C24.1099 5.43346 24.1597 5.68872 24.1586 5.94631C24.1242 5.46069 23.8997 5.00816 23.5337 4.68674C23.1677 4.36532 22.6897 4.2009 22.2033 4.22905C21.9613 4.21194 21.7183 4.24289 21.4883 4.32011C21.2584 4.39733 21.046 4.51927 20.8635 4.67893C20.6809 4.83859 20.5318 5.03278 20.4248 5.25031C20.3178 5.46783 20.255 5.70439 20.24 5.94631C20.239 5.68806 20.289 5.43215 20.3872 5.19326C20.4854 4.95437 20.6298 4.73723 20.8122 4.55426C20.9946 4.37128 21.2114 4.22609 21.4501 4.12702C21.6888 4.02796 21.9448 3.97696 22.2033 3.97697Z" fill="#937A2D"/>
<g opacity="0.2" style="mix-blend-mode:multiply">
<path d="M11.0385 12.9264H0V73.6608H11.0385V12.9264Z" fill="url(#paint1_radial_5_23261)"/>
</g>
<g opacity="0.5" style="mix-blend-mode:multiply">
<path d="M70.5125 11.8464H5.48792V2.55109L10.4947 0.85746L65.5057 0.841705L70.5125 2.55109V11.8464Z" fill="url(#paint2_radial_5_23261)"/>
</g>
<g opacity="0.2" style="mix-blend-mode:multiply">
<path d="M75.9999 12.9264H64.9614V73.6608H75.9999V12.9264Z" fill="url(#paint3_radial_5_23261)"/>
</g>
<path d="M52.6534 63.7113H58.4959C60.6642 63.7113 62.0676 62.1358 62.7142 58.591C63.3134 55.188 62.5249 53.6677 60.3488 53.6677H54.5063L55.4209 48.571C56.4538 42.7418 59.5209 39.8665 64.5592 39.8665H65.5211C68.3123 39.8665 69.8498 39.4175 70.0626 38.1178C70.1475 36.9709 70.0247 35.8181 69.7 34.7147C69.5091 33.592 69.1531 32.5037 68.6434 31.485C67.9653 30.3113 66.4121 29.7441 63.9678 29.7441C57.9203 29.7441 52.9293 31.3984 48.987 34.7541C45.0447 38.1099 42.5926 42.5763 41.4966 48.6577L40.5584 53.6677H28.3293C28.1322 53.6677 15.4458 55.0777 15.4458 55.0777L27.1229 56.8344L27.596 58.528L20.4525 59.1188L27.9587 60.198L28.2583 61.5686L5.86597 62.8054L30.2295 63.7113H38.737L36.5372 76H50.4772L52.6534 63.7113Z" fill="#2F7ABF"/>
<g style="mix-blend-mode:multiply" opacity="0.5">
<g opacity="0.5" style="mix-blend-mode:multiply">
<path d="M63.9759 29.744C57.7628 29.744 52.8822 31.4613 49.0503 34.7461C45.2183 38.031 42.6716 42.4265 41.5757 48.5236L40.6058 53.6675H28.3926L18.7496 54.7073L41.552 54.8649L41.6545 54.0772L42.5849 48.7757C43.6572 42.8283 46.1251 38.4012 49.9176 35.1479C53.7101 31.8945 58.094 30.5239 64.1493 30.5239C66.4753 30.5239 68.0522 30.4529 68.6594 31.5164C68.6515 31.4849 67.9261 29.6731 63.9759 29.744ZM36.5374 75.9998H37.4599L39.6755 63.6954H38.7372L36.5374 75.9998ZM60.5382 53.6675H54.4828L54.2384 54.92H62.5724C62.3977 54.5319 62.1104 54.205 61.7478 53.9817C61.3851 53.7585 60.9638 53.649 60.5382 53.6675Z" fill="#B3B5B3"/>
</g>
</g>
<path fill-rule="evenodd" clip-rule="evenodd" d="M75.9999 11.138L66.5857 4.76518V11.8548H75.9999V11.138Z" fill="#F6E72F"/>
<path fill-rule="evenodd" clip-rule="evenodd" d="M0 11.8548H9.40636V4.76518L0 11.138V11.8548Z" fill="#F6E72F"/>
<path fill-rule="evenodd" clip-rule="evenodd" d="M0 11.6815L9.40636 5.37962V4.76518L0 11.1616V11.6815Z" fill="#FDD537"/>
<path fill-rule="evenodd" clip-rule="evenodd" d="M75.9999 11.138L66.5857 4.76518V5.3875L75.9999 11.6894V11.138Z" fill="#FDD537"/>
<path d="M9.41425 11.5237H0V11.8466H9.41425V11.5237Z" fill="#F3DB0B"/>
<path d="M75.9999 11.5237H66.5857V11.8466H75.9999V11.5237Z" fill="#F3DB0B"/>
<path fill-rule="evenodd" clip-rule="evenodd" d="M56.4698 16.471C56.4713 16.8359 56.3645 17.1931 56.1627 17.4972C55.9609 17.8014 55.6733 18.0389 55.3363 18.1796C54.9993 18.3203 54.6281 18.358 54.2697 18.2877C53.9113 18.2175 53.5818 18.0426 53.323 17.7851C53.0642 17.5276 52.8876 17.1992 52.8158 16.8414C52.744 16.4836 52.7801 16.1126 52.9195 15.7753C53.0589 15.438 53.2954 15.1497 53.5989 14.9468C53.9025 14.7439 54.2595 14.6356 54.6248 14.6356C54.8667 14.6345 55.1064 14.6812 55.3302 14.773C55.554 14.8648 55.7575 14.9998 55.9289 15.1704C56.1003 15.3409 56.2364 15.5436 56.3292 15.7668C56.422 15.99 56.4698 16.2293 56.4698 16.471Z" fill="url(#paint4_linear_5_23261)"/>
<path fill-rule="evenodd" clip-rule="evenodd" d="M22.9916 16.5337C22.9916 16.8861 22.8869 17.2306 22.6907 17.5236C22.4946 17.8165 22.2158 18.0447 21.8897 18.1792C21.5637 18.3137 21.205 18.3485 20.8591 18.2792C20.5132 18.2098 20.1957 18.0395 19.9469 17.7897C19.698 17.54 19.5289 17.222 19.461 16.8762C19.3932 16.5303 19.4296 16.1721 19.5656 15.8469C19.7017 15.5218 19.9314 15.2443 20.2254 15.0496C20.5195 14.8549 20.8648 14.7518 21.2175 14.7534C21.4512 14.7534 21.6825 14.7995 21.8983 14.8891C22.114 14.9786 22.3099 15.1099 22.4748 15.2753C22.6396 15.4407 22.7701 15.6371 22.8588 15.853C22.9475 16.069 22.9926 16.3003 22.9916 16.5337Z" fill="url(#paint5_linear_5_23261)"/>
<g opacity="0.25" filter="url(#filter0_f_5_23261)">
<path d="M20.5227 16.612C20.5078 16.9076 20.5002 17.2051 20.5002 17.5044C20.5002 27.1278 28.3088 34.9291 37.9411 34.9291C47.5734 34.9291 55.3819 27.1278 55.3819 17.5044C55.3819 17.2051 55.3743 16.9076 55.3594 16.612H53.3354C53.3523 16.9073 53.3608 17.2048 53.3608 17.5044C53.3608 26.0126 46.4572 32.9099 37.9411 32.9099C29.425 32.9099 22.5213 26.0126 22.5213 17.5044C22.5213 17.2048 22.5298 16.9073 22.5467 16.612H20.5227Z" fill="black"/>
</g>
<g filter="url(#filter1_i_5_23261)">
<path d="M37.9485 31.5482C33.4854 31.5786 29.1528 30.0456 25.7037 27.2156C22.4 24.4585 20.5156 20.7719 20.5156 17.0932C20.4754 16.7669 20.5022 16.4359 20.5944 16.1203C20.6866 15.8047 20.8422 15.5113 21.0517 15.2578C21.2958 15.1388 21.5701 15.0961 21.8388 15.1355C22.1075 15.1748 22.3581 15.2943 22.5577 15.4784C22.5577 15.4784 22.9046 15.6123 22.9046 16.2661C22.9046 16.6836 22.9046 17.2271 22.9046 17.2271C22.9046 23.6629 29.9062 29.185 37.9327 29.185C48.2773 29.185 52.9135 22.9382 52.9135 17.1168C52.9135 17.1168 52.5429 15.7777 53.3945 15.179C55.618 14.5646 55.3735 17.1011 55.3735 17.1011C55.3769 19.0111 54.9712 20.8996 54.1838 22.6401C53.3965 24.3805 52.2455 25.9325 50.8083 27.192C47.6229 30.0436 43.1918 31.5482 37.9485 31.5482Z" fill="white"/>
</g>
<mask id="mask0_5_23261" style="mask-type:alpha" maskUnits="userSpaceOnUse" x="20" y="15" width="36" height="17">
<path d="M37.9485 31.5482C33.4854 31.5786 29.1528 30.0456 25.7037 27.2156C22.4 24.4585 20.5156 20.7719 20.5156 17.0932C20.4754 16.7669 20.5022 16.4359 20.5944 16.1203C20.6866 15.8047 20.8422 15.5113 21.0517 15.2578C21.2958 15.1388 21.5701 15.0961 21.8388 15.1355C22.1075 15.1748 22.3581 15.2943 22.5577 15.4784C22.5577 15.4784 22.9046 15.6123 22.9046 16.2661C22.9046 16.6836 22.9046 17.2271 22.9046 17.2271C22.9046 23.6629 29.9062 29.185 37.9327 29.185C48.2773 29.185 52.9135 22.9382 52.9135 17.1168C52.9135 17.1168 52.5429 15.7777 53.3945 15.179C55.618 14.5646 55.3735 17.1011 55.3735 17.1011C55.3769 19.0111 54.9712 20.8996 54.1838 22.6401C53.3965 24.3805 52.2455 25.9325 50.8083 27.192C47.6229 30.0436 43.1918 31.5482 37.9485 31.5482Z" fill="white"/>
</mask>
<g mask="url(#mask0_5_23261)">
<g opacity="0.4">
<path d="M23.3624 16.5809C22.8382 16.2956 22.2595 16.1242 21.6643 16.078C21.0691 16.0319 20.4709 16.112 19.9089 16.3131L19.8221 16.0925C20.418 15.8748 21.0537 15.7875 21.6862 15.8364C22.3187 15.8853 22.9333 16.0694 23.4885 16.3761L23.3624 16.5809Z" fill="#A6A7AB"/>
<path d="M19.9638 18.5349L19.8376 18.338C20.3791 18.0075 20.9855 17.7977 21.6156 17.7229C22.2456 17.6481 22.8844 17.7102 23.4882 17.9047L23.4015 18.1253C22.8316 17.9502 22.2313 17.8962 21.6393 17.9667C21.0472 18.0372 20.4765 18.2308 19.9638 18.5349Z" fill="#A6A7AB"/>
<path d="M20.7917 20.7562L20.6261 20.5829C21.0945 20.1547 21.6494 19.8319 22.2533 19.6362C22.8572 19.4406 23.4961 19.3766 24.1269 19.4486L24.0874 19.6849C23.4935 19.6211 22.8929 19.6836 22.3248 19.8682C21.7568 20.0529 21.2343 20.3555 20.7917 20.7562Z" fill="#A6A7AB"/>
<path d="M21.4855 22.749L21.312 22.5915C21.7484 22.1309 22.2797 21.7705 22.8691 21.5352C23.4586 21.2999 24.0922 21.1953 24.726 21.2287V21.465C24.1258 21.4385 23.5267 21.5392 22.9682 21.7605C22.4097 21.9818 21.9044 22.3187 21.4855 22.749Z" fill="#A6A7AB"/>
<path d="M22.5263 24.7261L22.3213 24.608C22.6602 24.0729 23.1101 23.6167 23.6406 23.2702C24.1711 22.9237 24.7698 22.6949 25.3963 22.5993V22.8356C24.8125 22.9336 24.2557 23.1524 23.7614 23.478C23.2672 23.8036 22.8465 24.2287 22.5263 24.7261Z" fill="#A6A7AB"/>
<path d="M23.9774 26.3256L23.7645 26.2153C24.0782 25.6654 24.5056 25.1884 25.0181 24.8163C25.5306 24.4441 26.1166 24.1853 26.737 24.0569V24.2933C26.1608 24.4215 25.6178 24.6685 25.1426 25.0185C24.6674 25.3684 24.2705 25.8136 23.9774 26.3256Z" fill="#A6A7AB"/>
<path d="M25.507 27.7832L25.2863 27.6887C25.5575 27.1184 25.9476 26.6126 26.4303 26.205C26.913 25.7975 27.4772 25.4976 28.0853 25.3255L28.1326 25.554C27.5628 25.7204 27.0345 26.005 26.5821 26.3891C26.1297 26.7732 25.7634 27.2482 25.507 27.7832Z" fill="#A6A7AB"/>
<path d="M27.1232 29.3194L26.8945 29.2643C27.0443 28.6493 27.3246 28.0736 27.7163 27.5762C28.1081 27.0788 28.6022 26.6712 29.1653 26.3812L29.2678 26.6017C28.74 26.8797 28.2764 27.2652 27.907 27.7333C27.5375 28.2014 27.2705 28.7418 27.1232 29.3194Z" fill="#A6A7AB"/>
<path d="M29.2835 30.3036H29.047C29.0723 29.67 29.234 29.0493 29.5211 28.4838C29.8082 27.9183 30.2139 27.4213 30.7107 27.0266L30.8447 27.2236C30.3816 27.5977 30.003 28.0656 29.7339 28.5965C29.4649 29.1274 29.3113 29.7092 29.2835 30.3036Z" fill="#A6A7AB"/>
<path d="M30.9473 31.2332C30.9306 30.5986 31.0516 29.968 31.302 29.3846C31.5525 28.8012 31.9264 28.279 32.3981 27.8538L32.54 28.0349C32.1082 28.4379 31.7647 28.926 31.5313 29.4684C31.2979 30.0107 31.1796 30.5955 31.1839 31.1859L30.9473 31.2332Z" fill="#A6A7AB"/>
<path d="M33.0918 31.9425C32.9553 31.3224 32.9551 30.6801 33.0912 30.0599C33.2273 29.4397 33.4966 28.8565 33.8803 28.3504L34.0616 28.5001C33.7115 28.983 33.4673 29.5343 33.345 30.118C33.2227 30.7017 33.2251 31.3046 33.352 31.8873L33.0918 31.9425Z" fill="#A6A7AB"/>
<path d="M35.4727 31.9107C35.2145 31.3306 35.0843 30.7018 35.0911 30.067C35.0979 29.4322 35.2415 28.8063 35.5122 28.2319L35.7251 28.3501C35.4803 28.8937 35.3537 29.4831 35.3537 30.0792C35.3537 30.6753 35.4803 31.2646 35.7251 31.8083L35.4727 31.9107Z" fill="#A6A7AB"/>
<path d="M37.7514 32.4462C37.3864 31.9285 37.1387 31.3375 37.0257 30.7144C36.9127 30.0913 36.937 29.4511 37.0969 28.8383L37.3177 28.9092C37.1776 29.4885 37.1607 30.0906 37.268 30.6767C37.3753 31.2629 37.6044 31.8201 37.9406 32.3123L37.7514 32.4462Z" fill="#A6A7AB"/>
<path d="M39.7622 32.3988C39.393 31.883 39.1392 31.2938 39.0181 30.6712C38.897 30.0487 38.9115 29.4075 39.0605 28.791L39.2812 28.8619C39.1505 29.4433 39.1426 30.0455 39.258 30.6301C39.3734 31.2147 39.6096 31.7688 39.9514 32.257L39.7622 32.3988Z" fill="#A6A7AB"/>
<path d="M41.6547 32.0449C41.3149 31.5111 41.094 30.9106 41.0069 30.284C40.9198 29.6574 40.9687 29.0195 41.1501 28.4134L41.3788 28.4922C41.2117 29.0631 41.1674 29.6629 41.2489 30.2522C41.3305 30.8414 41.5359 31.4067 41.8518 31.911L41.6547 32.0449Z" fill="#A6A7AB"/>
<path d="M43.7598 31.7296C43.3754 31.2223 43.1059 30.6377 42.9697 30.0162C42.8336 29.3946 42.8342 28.751 42.9713 28.1297L43.2 28.2006C43.0745 28.7829 43.072 29.3849 43.1929 29.9682C43.3137 30.5515 43.5551 31.1031 43.9017 31.5878L43.7598 31.7296Z" fill="#A6A7AB"/>
<path d="M45.9202 31.0836C45.4505 30.6576 45.0789 30.1348 44.8312 29.5514C44.5834 28.9679 44.4654 28.3377 44.4852 27.7042H44.7217C44.7165 28.2947 44.8343 28.8798 45.0678 29.4223C45.3013 29.9648 45.6453 30.4528 46.0779 30.8552L45.9202 31.0836Z" fill="#A6A7AB"/>
<path d="M47.7573 29.973C47.2751 29.5662 46.8851 29.0614 46.6132 28.4923C46.3413 27.9232 46.1938 27.3028 46.1804 26.6724H46.4169C46.4305 27.2757 46.5733 27.8692 46.8358 28.4128C47.0983 28.9563 47.4744 29.4373 47.9387 29.8233L47.7573 29.973Z" fill="#A6A7AB"/>
<path d="M49.4996 28.7045C48.9805 28.3437 48.5449 27.8756 48.2225 27.3319C47.9001 26.7883 47.6984 26.1819 47.631 25.5536H47.8675C47.9356 26.1461 48.1281 26.7176 48.4325 27.2307C48.7368 27.7438 49.1461 28.187 49.6337 28.5312L49.4996 28.7045Z" fill="#A6A7AB"/>
<path d="M51.3134 27.3974C50.7313 27.1471 50.2111 26.7727 49.7889 26.3006C49.3667 25.8285 49.0528 25.2699 48.8691 24.664L49.0978 24.6089C49.2808 25.1759 49.5811 25.6982 49.979 26.142C50.377 26.5857 50.8638 26.941 51.408 27.1847L51.3134 27.3974Z" fill="#A6A7AB"/>
<path d="M52.7011 25.4752C52.5986 25.4752 50.0834 24.9868 49.2397 23.2144L49.4526 23.1041C50.2411 24.7741 52.7169 25.231 52.7484 25.231L52.7011 25.4752Z" fill="#A6A7AB"/>
<path d="M54.4119 23.8683C54.2937 23.8683 51.6523 23.4193 50.6982 21.7099L50.9033 21.5838C51.81 23.2066 54.4198 23.6319 54.4434 23.6319L54.4119 23.8683Z" fill="#A6A7AB"/>
<path d="M54.8691 21.7807C54.261 21.7923 53.6573 21.6755 53.0975 21.4379C52.5377 21.2003 52.0345 20.8474 51.6206 20.4021L51.802 20.2525C52.2184 20.68 52.7197 21.0158 53.2737 21.2383C53.8277 21.4608 54.4221 21.565 55.0189 21.5443V21.7807H54.8691Z" fill="#A6A7AB"/>
<path d="M54.6328 19.583C53.6241 19.6244 52.6305 19.3277 51.8101 18.7401L51.952 18.5589C53.4106 19.709 55.7366 19.2521 55.7603 19.2443L55.8391 19.4727C55.4414 19.5473 55.0375 19.5842 54.6328 19.583Z" fill="#A6A7AB"/>
<path d="M54.0334 17.7001C53.394 17.6999 52.7584 17.6016 52.1489 17.4086L52.2199 17.1881C53.3511 17.5641 54.5737 17.5641 55.7049 17.1881L55.8074 17.4008C55.2413 17.6153 54.6386 17.717 54.0334 17.7001Z" fill="#A6A7AB"/>
<path d="M53.7969 15.9827C53.1887 15.9867 52.5849 15.8799 52.015 15.6676L52.1017 15.4471C53.2299 15.8415 54.4586 15.8415 55.5868 15.4471L55.6735 15.6676C55.072 15.8846 54.4363 15.9913 53.7969 15.9827Z" fill="#A6A7AB"/>
<path d="M23.4802 16.6911C22.9513 16.4033 22.3675 16.2299 21.7671 16.1824C21.1666 16.1349 20.5629 16.2143 19.9952 16.4154L19.9321 16.25C20.5244 16.0401 21.1543 15.9576 21.7807 16.0079C22.4071 16.0581 23.0158 16.2399 23.5669 16.5414L23.4802 16.6911Z" fill="white"/>
<path d="M20.0824 18.6535L19.9799 18.5039C20.5204 18.182 21.1225 17.9771 21.7473 17.9025C22.3721 17.8278 23.0056 17.8851 23.6068 18.0706L23.5437 18.2439C22.9701 18.0668 22.3658 18.0118 21.7696 18.0823C21.1734 18.1529 20.5987 18.3475 20.0824 18.6535Z" fill="white"/>
<path d="M20.9019 20.8752L20.7758 20.7491C21.2432 20.3272 21.7946 20.0087 22.3938 19.8146C22.993 19.6205 23.6266 19.555 24.2529 19.6226V19.7959C23.6496 19.7272 23.0386 19.7879 22.4607 19.974C21.8829 20.1601 21.3514 20.4674 20.9019 20.8752Z" fill="white"/>
<path d="M21.5958 22.8838L21.4618 22.7657C21.8991 22.3162 22.4264 21.9639 23.0093 21.7318C23.5921 21.4997 24.2174 21.393 24.8443 21.4187V21.5919C24.2426 21.5688 23.6426 21.6718 23.0832 21.8943C22.5237 22.1168 22.017 22.4539 21.5958 22.8838Z" fill="white"/>
<path d="M22.6288 24.8608L22.479 24.7662C22.8187 24.2366 23.267 23.7851 23.7944 23.4415C24.3218 23.0979 24.9161 22.8702 25.5382 22.7733V22.9544C24.9463 23.0496 24.3811 23.2686 23.8797 23.5971C23.3783 23.9257 22.9521 24.3563 22.6288 24.8608Z" fill="white"/>
<path d="M24.0798 26.4596L23.9221 26.373C24.2365 25.8289 24.6612 25.3566 25.169 24.9863C25.6768 24.6159 26.2566 24.3558 26.871 24.2225V24.4036C26.2876 24.532 25.7377 24.7813 25.2568 25.1355C24.776 25.4896 24.375 25.9408 24.0798 26.4596Z" fill="white"/>
<path d="M25.6096 27.9091L25.444 27.8382C25.7152 27.2721 26.1024 26.7693 26.5805 26.3622C27.0586 25.9551 27.6169 25.6529 28.2194 25.475L28.2588 25.6483C27.6837 25.8195 27.1508 26.109 26.6945 26.4984C26.2383 26.8878 25.8687 27.3684 25.6096 27.9091Z" fill="white"/>
<path d="M27.2256 29.4608L27.0521 29.4214C27.2045 28.8117 27.4842 28.2411 27.8728 27.7469C28.2614 27.2528 28.7502 26.8462 29.3071 26.5541L29.386 26.7116C28.853 26.9929 28.3853 27.383 28.0131 27.8566C27.6409 28.3303 27.3726 28.8768 27.2256 29.4608Z" fill="white"/>
<path d="M29.386 30.4455H29.2047C29.2354 29.8172 29.3988 29.2025 29.6841 28.6418C29.9695 28.0811 30.3704 27.5871 30.8605 27.1922L30.963 27.334C30.4953 27.7122 30.1131 28.1849 29.8413 28.7212C29.5695 29.2575 29.4144 29.8451 29.386 30.4455Z" fill="white"/>
<path d="M31.105 31.3749C31.0943 30.7462 31.2165 30.1223 31.4638 29.544C31.7111 28.9657 32.0778 28.4461 32.54 28.0192L32.6583 28.161C32.2153 28.5682 31.8633 29.0642 31.6255 29.6167C31.3877 30.1693 31.2695 30.7657 31.2785 31.3671L31.105 31.3749Z" fill="white"/>
<path d="M33.2495 32.0763C33.1166 31.4623 33.1146 30.8272 33.2437 30.2124C33.3727 29.5976 33.6299 29.0168 33.9985 28.5079L34.1404 28.6181C33.7854 29.1048 33.5379 29.6612 33.4142 30.2506C33.2905 30.8399 33.2935 31.4488 33.4229 32.0369L33.2495 32.0763Z" fill="white"/>
<path d="M35.6226 32.0368C35.3727 31.4599 35.2477 30.8367 35.2559 30.2081C35.264 29.5796 35.4051 28.9598 35.6699 28.3896L35.8276 28.4762C35.5768 29.0227 35.4437 29.6157 35.437 30.2169C35.4302 30.818 35.5498 31.4139 35.7882 31.9659L35.6226 32.0368Z" fill="white"/>
<path d="M37.9094 32.5806C37.5527 32.0619 37.31 31.4736 37.1973 30.8545C37.0845 30.2354 37.1041 29.5995 37.255 28.9885L37.4205 29.0436C37.2761 29.6268 37.2576 30.234 37.3664 30.8248C37.4752 31.4157 37.7087 31.9766 38.0513 32.4703L37.9094 32.5806Z" fill="white"/>
<path d="M39.92 32.5256C39.5564 32.0115 39.3059 31.4263 39.1849 30.8085C39.064 30.1908 39.0753 29.5544 39.2182 28.9414L39.3838 28.9965C39.2493 29.5819 39.2402 30.1891 39.357 30.7783C39.4739 31.3675 39.7141 31.9254 40.0619 32.4153L39.92 32.5256Z" fill="white"/>
<path d="M41.812 32.1708C41.4806 31.6378 41.2652 31.0412 41.1796 30.4196C41.094 29.7981 41.1402 29.1655 41.3153 28.5629L41.473 28.6181C41.3073 29.1965 41.2653 29.8033 41.3495 30.3991C41.4337 30.9948 41.6423 31.5662 41.9618 32.0762L41.812 32.1708Z" fill="white"/>
<path d="M44.0276 31.8082C43.63 31.3212 43.3465 30.7516 43.1978 30.141C43.0491 29.5303 43.039 28.8942 43.1682 28.2792L43.3416 28.3343C43.2192 28.9212 43.23 29.528 43.3732 30.1101C43.5165 30.6922 43.7886 31.2348 44.1695 31.698L44.0276 31.8082Z" fill="white"/>
<path d="M46.2038 31.178C45.7121 30.7742 45.3157 30.2668 45.0431 29.6921C44.7705 29.1174 44.6284 28.4897 44.6268 27.8538H44.8082C44.8098 28.4569 44.945 29.0521 45.204 29.5969C45.463 30.1416 45.8394 30.6224 46.3063 31.0047L46.2038 31.178Z" fill="white"/>
<path d="M48.0567 29.9018C47.535 29.5536 47.1041 29.0861 46.7996 28.538C46.4952 27.99 46.326 27.3773 46.3063 26.7508H46.4876C46.5107 27.3397 46.6737 27.9147 46.9629 28.4283C47.2522 28.9419 47.6595 29.3794 48.1513 29.7048L48.0567 29.9018Z" fill="white"/>
<path d="M49.902 28.7204C49.902 28.7204 47.8678 27.6333 47.7653 25.6797H47.923C48.0176 27.5309 49.9414 28.5628 49.9572 28.5707L49.902 28.7204Z" fill="white"/>
<path d="M51.8653 27.4522C51.7706 27.4128 49.4999 26.5227 49.0189 24.6321L49.2003 24.5849C49.6497 26.3888 51.9047 27.271 51.9283 27.2789L51.8653 27.4522Z" fill="white"/>
<path d="M53.103 25.3095C52.9847 25.3095 50.2487 24.8369 49.413 23.0724L49.5785 23.0015C50.367 24.6793 53.103 25.1283 53.1266 25.1362L53.103 25.3095Z" fill="white"/>
<path d="M54.4436 23.8437L54.1125 23.7098C53.324 23.3947 51.5027 22.67 51.0769 21.9059L51.2346 21.8193C51.6288 22.5282 53.4186 23.2451 54.1756 23.5444C54.6013 23.7098 54.6092 23.7177 54.5856 23.8044C54.58 23.8173 54.5715 23.8288 54.5609 23.8381C54.5502 23.8474 54.5376 23.8542 54.524 23.858C54.5104 23.8617 54.4961 23.8624 54.4822 23.8599C54.4683 23.8575 54.4551 23.852 54.4436 23.8437Z" fill="white"/>
<path d="M55.1609 21.8903V21.7643L54.5538 21.6067C53.6234 21.3783 52.1884 21.0238 51.7863 20.5275L51.9203 20.4093C52.3067 20.8662 53.7417 21.1971 54.6011 21.4413C55.4605 21.6855 55.4447 21.6461 55.4368 21.7643C55.429 21.8824 55.2791 21.8824 55.1609 21.8903Z" fill="white"/>
<path d="M55.5393 19.5437V19.4413L54.8375 19.3862C53.8914 19.331 52.4721 19.2444 51.9833 18.8663L52.0937 18.7245C52.5273 19.0711 53.9781 19.1577 54.8454 19.2129C55.7127 19.268 55.7521 19.268 55.7679 19.3862C55.7837 19.5043 55.626 19.5201 55.5393 19.5437Z" fill="white"/>
<path d="M53.9862 17.9204C53.3913 17.9309 52.8032 17.7928 52.2753 17.5186L52.3541 17.3611C52.9041 17.6044 53.499 17.7302 54.1006 17.7302C54.7021 17.7302 55.297 17.6044 55.847 17.3611L55.9259 17.5265C55.3104 17.7802 54.652 17.9139 53.9862 17.9204Z" fill="white"/>
<path d="M53.8599 16.1794C53.2655 16.1851 52.6785 16.0473 52.1489 15.7776L52.2278 15.6201C52.7777 15.8639 53.3726 15.9899 53.9742 15.9899C54.5758 15.9899 55.1708 15.8639 55.7207 15.6201L55.7995 15.7776C55.1869 16.0415 54.527 16.1782 53.8599 16.1794Z" fill="white"/>
</g>
</g>
<defs>
<filter id="filter0_f_5_23261" x="19.4085" y="15.5202" width="37.0651" height="20.5006" filterUnits="userSpaceOnUse" color-interpolation-filters="sRGB">
<feFlood flood-opacity="0" result="BackgroundImageFix"/>
<feBlend mode="normal" in="SourceGraphic" in2="BackgroundImageFix" result="shape"/>
<feGaussianBlur stdDeviation="0.54588" result="effect1_foregroundBlur_5_23261"/>
</filter>
<filter id="filter1_i_5_23261" x="20.4974" y="15.083" width="34.884" height="16.4656" filterUnits="userSpaceOnUse" color-interpolation-filters="sRGB">
<feFlood flood-opacity="0" result="BackgroundImageFix"/>
<feBlend mode="normal" in="SourceGraphic" in2="BackgroundImageFix" result="shape"/>
<feColorMatrix in="SourceAlpha" type="matrix" values="0 0 0 0 0 0 0 0 0 0 0 0 0 0 0 0 0 0 127 0" result="hardAlpha"/>
<feOffset/>
<feGaussianBlur stdDeviation="2.5"/>
<feComposite in2="hardAlpha" operator="arithmetic" k2="-1" k3="1"/>
<feColorMatrix type="matrix" values="0 0 0 0 0.733333 0 0 0 0 0.737255 0 0 0 0 0.745098 0 0 0 0.6 0"/>
<feBlend mode="normal" in2="shape" result="effect1_innerShadow_5_23261"/>
</filter>
<linearGradient id="paint0_linear_5_23261" x1="37.996" y1="75.9998" x2="37.996" y2="11.5237" gradientUnits="userSpaceOnUse">
<stop offset="0.01" stop-color="#FFCC04"/>
<stop offset="0.4" stop-color="#F6E72F"/>
<stop offset="1" stop-color="#F6E72F"/>
</linearGradient>
<radialGradient id="paint1_radial_5_23261" cx="0" cy="0" r="1" gradientUnits="userSpaceOnUse" gradientTransform="translate(-0.314124 43.6063) rotate(-90) scale(45.357 14.4333)">
<stop stop-color="#F5A620"/>
<stop offset="1" stop-color="white" stop-opacity="0"/>
</radialGradient>
<radialGradient id="paint2_radial_5_23261" cx="0" cy="0" r="1" gradientUnits="userSpaceOnUse" gradientTransform="translate(37.8464 11.8858) rotate(90) scale(8.27123 59.6541)">
<stop stop-color="#F4A41F"/>
<stop offset="1" stop-color="white"/>
</radialGradient>
<radialGradient id="paint3_radial_5_23261" cx="0" cy="0" r="1" gradientUnits="userSpaceOnUse" gradientTransform="translate(75.6924 43.396) rotate(-90) scale(45.6887 14.5388)">
<stop stop-color="#F5A620"/>
<stop offset="1" stop-color="white" stop-opacity="0"/>
</radialGradient>
<linearGradient id="paint4_linear_5_23261" x1="54.6327" y1="14.8404" x2="54.6327" y2="18.5506" gradientUnits="userSpaceOnUse">
<stop stop-color="#F6E72F"/>
<stop offset="1" stop-color="#F5A620"/>
</linearGradient>
<linearGradient id="paint5_linear_5_23261" x1="21.2173" y1="14.9512" x2="21.2173" y2="18.5346" gradientUnits="userSpaceOnUse">
<stop stop-color="#F6E72F"/>
<stop offset="1" stop-color="#F5A620"/>
</linearGradient>
</defs>
</svg>
