<svg width="59" height="34" viewBox="0 0 59 34" fill="none" xmlns="http://www.w3.org/2000/svg">
<path d="M0.758523 21.2727H3.03409L5.4375 27.1364H5.53977L7.94318 21.2727H10.2188V30H8.42898V24.3196H8.35653L6.09801 29.9574H4.87926L2.62074 24.2983H2.5483V30H0.758523V21.2727ZM11.7049 30V23.4545H13.5202V30H11.7049ZM12.6168 22.6108C12.3469 22.6108 12.1154 22.5213 11.9222 22.3423C11.7319 22.1605 11.6367 21.9432 11.6367 21.6903C11.6367 21.4403 11.7319 21.2259 11.9222 21.0469C12.1154 20.8651 12.3469 20.7741 12.6168 20.7741C12.8867 20.7741 13.1168 20.8651 13.3072 21.0469C13.5004 21.2259 13.5969 21.4403 13.5969 21.6903C13.5969 21.9432 13.5004 22.1605 13.3072 22.3423C13.1168 22.5213 12.8867 22.6108 12.6168 22.6108ZM16.7898 26.2159V30H14.9744V23.4545H16.7045V24.6094H16.7812C16.9261 24.2287 17.169 23.9276 17.5099 23.706C17.8509 23.4815 18.2642 23.3693 18.75 23.3693C19.2045 23.3693 19.6009 23.4688 19.9389 23.6676C20.277 23.8665 20.5398 24.1506 20.7273 24.5199C20.9148 24.8864 21.0085 25.3239 21.0085 25.8324V30H19.1932V26.1562C19.196 25.7557 19.0938 25.4432 18.8864 25.2188C18.679 24.9915 18.3935 24.8778 18.0298 24.8778C17.7855 24.8778 17.5696 24.9304 17.3821 25.0355C17.1974 25.1406 17.0526 25.294 16.9474 25.4957C16.8452 25.6946 16.7926 25.9347 16.7898 26.2159ZM22.4393 30V23.4545H24.2546V30H22.4393ZM23.3512 22.6108C23.0813 22.6108 22.8498 22.5213 22.6566 22.3423C22.4663 22.1605 22.3711 21.9432 22.3711 21.6903C22.3711 21.4403 22.4663 21.2259 22.6566 21.0469C22.8498 20.8651 23.0813 20.7741 23.3512 20.7741C23.6211 20.7741 23.8512 20.8651 24.0415 21.0469C24.2347 21.2259 24.3313 21.4403 24.3313 21.6903C24.3313 21.9432 24.2347 22.1605 24.0415 22.3423C23.8512 22.5213 23.6211 22.6108 23.3512 22.6108ZM30.0245 30H28.0472L31.06 21.2727H33.4379L36.4464 30H34.4691L32.283 23.267H32.2148L30.0245 30ZM29.9009 26.5696H34.5714V28.0099H29.9009V26.5696ZM37.4627 32.4545V23.4545H39.2525V24.554H39.3335C39.413 24.3778 39.5281 24.1989 39.6786 24.017C39.832 23.8324 40.0309 23.679 40.2752 23.5568C40.5224 23.4318 40.8292 23.3693 41.1957 23.3693C41.6729 23.3693 42.1133 23.4943 42.5167 23.7443C42.9201 23.9915 43.2425 24.3651 43.484 24.8651C43.7255 25.3622 43.8462 25.9858 43.8462 26.7358C43.8462 27.4659 43.7283 28.0824 43.4925 28.5852C43.2596 29.0852 42.9414 29.4645 42.538 29.723C42.1374 29.9787 41.6886 30.1065 41.1914 30.1065C40.8391 30.1065 40.5394 30.0483 40.2923 29.9318C40.0479 29.8153 39.8477 29.669 39.6914 29.4929C39.5352 29.3139 39.4158 29.1335 39.3335 28.9517H39.2781V32.4545H37.4627ZM39.2397 26.7273C39.2397 27.1165 39.2937 27.456 39.4016 27.7457C39.5096 28.0355 39.6658 28.2614 39.8704 28.4233C40.0749 28.5824 40.3235 28.6619 40.6161 28.6619C40.9116 28.6619 41.1616 28.581 41.3661 28.419C41.5707 28.2543 41.7255 28.027 41.8306 27.7372C41.9386 27.4446 41.9925 27.108 41.9925 26.7273C41.9925 26.3494 41.94 26.017 41.8349 25.7301C41.7298 25.4432 41.5749 25.2187 41.3704 25.0568C41.1658 24.8949 40.9144 24.8139 40.6161 24.8139C40.3207 24.8139 40.0707 24.892 39.8661 25.0483C39.6644 25.2045 39.5096 25.4261 39.4016 25.7131C39.2937 26 39.2397 26.3381 39.2397 26.7273ZM45.0565 32.4545V23.4545H46.8462V24.554H46.9272C47.0067 24.3778 47.1218 24.1989 47.2724 24.017C47.4258 23.8324 47.6246 23.679 47.869 23.5568C48.1161 23.4318 48.4229 23.3693 48.7894 23.3693C49.2667 23.3693 49.707 23.4943 50.1104 23.7443C50.5138 23.9915 50.8363 24.3651 51.0778 24.8651C51.3192 25.3622 51.44 25.9858 51.44 26.7358C51.44 27.4659 51.3221 28.0824 51.0863 28.5852C50.8533 29.0852 50.5352 29.4645 50.1317 29.723C49.7312 29.9787 49.2823 30.1065 48.7852 30.1065C48.4329 30.1065 48.1332 30.0483 47.886 29.9318C47.6417 29.8153 47.4414 29.669 47.2852 29.4929C47.1289 29.3139 47.0096 29.1335 46.9272 28.9517H46.8718V32.4545H45.0565ZM46.8335 26.7273C46.8335 27.1165 46.8874 27.456 46.9954 27.7457C47.1033 28.0355 47.2596 28.2614 47.4641 28.4233C47.6687 28.5824 47.9173 28.6619 48.2099 28.6619C48.5053 28.6619 48.7553 28.581 48.9599 28.419C49.1644 28.2543 49.3192 28.027 49.4244 27.7372C49.5323 27.4446 49.5863 27.108 49.5863 26.7273C49.5863 26.3494 49.5337 26.017 49.4286 25.7301C49.3235 25.4432 49.1687 25.2187 48.9641 25.0568C48.7596 24.8949 48.5082 24.8139 48.2099 24.8139C47.9144 24.8139 47.6644 24.892 47.4599 25.0483C47.2582 25.2045 47.1033 25.4261 46.9954 25.7131C46.8874 26 46.8335 26.3381 46.8335 26.7273ZM58.0962 25.321L56.4343 25.4233C56.4059 25.2812 56.3448 25.1534 56.2511 25.0398C56.1573 24.9233 56.0337 24.831 55.8803 24.7628C55.7298 24.6918 55.5494 24.6562 55.3391 24.6562C55.0579 24.6562 54.8207 24.7159 54.6275 24.8352C54.4343 24.9517 54.3377 25.108 54.3377 25.304C54.3377 25.4602 54.4002 25.5923 54.5252 25.7003C54.6502 25.8082 54.8647 25.8949 55.1687 25.9602L56.3533 26.1989C56.9897 26.3295 57.4641 26.5398 57.7766 26.8295C58.0891 27.1193 58.2454 27.5 58.2454 27.9716C58.2454 28.4006 58.119 28.777 57.8661 29.1009C57.6161 29.4247 57.2724 29.6776 56.8349 29.8594C56.4002 30.0384 55.8988 30.1278 55.3306 30.1278C54.4641 30.1278 53.7738 29.9474 53.2596 29.5866C52.7482 29.223 52.4485 28.7287 52.3604 28.1037L54.146 28.0099C54.1999 28.2741 54.3306 28.4759 54.538 28.6151C54.7454 28.7514 55.011 28.8196 55.3349 28.8196C55.6531 28.8196 55.9087 28.7585 56.1019 28.6364C56.2979 28.5114 56.3974 28.3509 56.4002 28.1548C56.3974 27.9901 56.3278 27.8551 56.1914 27.75C56.055 27.642 55.8448 27.5597 55.5607 27.5028L54.4272 27.277C53.788 27.1491 53.3121 26.9276 52.9996 26.6122C52.69 26.2969 52.5352 25.8949 52.5352 25.4062C52.5352 24.9858 52.6488 24.6236 52.8761 24.3196C53.1062 24.0156 53.4286 23.7812 53.8434 23.6165C54.261 23.4517 54.7496 23.3693 55.3093 23.3693C56.136 23.3693 56.7866 23.544 57.261 23.8935C57.7383 24.2429 58.0167 24.7187 58.0962 25.321Z" fill="#101010"/>
<path d="M54.9739 4.93009C54.4807 3.52224 53.141 2.51074 51.5646 2.51074H51.5323C50.5083 2.51074 49.5847 2.93758 48.9283 3.62088C48.2701 2.93579 47.3464 2.51074 46.3242 2.51074H46.2919C45.3916 2.51074 44.5684 2.84074 43.9371 3.38594V3.10975C43.9156 2.83356 43.6878 2.61476 43.4081 2.61476H40.9905C40.6964 2.61476 40.4561 2.85508 40.4561 3.151V16.2772C40.4561 16.5731 40.6964 16.8116 40.9905 16.8116H43.4081C43.6789 16.8116 43.8995 16.6108 43.9353 16.3489L43.9335 6.92619C43.9335 6.8939 43.9353 6.86342 43.9389 6.83113C43.9784 6.41147 44.285 6.06534 44.7729 6.02229H44.8625H45.1172H45.2194C45.4239 6.04023 45.5943 6.11196 45.7288 6.21957C45.9386 6.38815 46.057 6.64462 46.057 6.92619L46.0659 16.3023C46.0659 16.5982 46.3062 16.8385 46.6004 16.8385H49.0179C49.3031 16.8385 49.5362 16.6125 49.5488 16.3292L49.547 6.91543C49.5452 6.60516 49.6887 6.32539 49.9415 6.16039C50.0653 6.07968 50.2142 6.02588 50.3863 6.01153H50.476H50.7307H50.8329C51.3548 6.05816 51.6722 6.45272 51.6704 6.91543L51.6794 16.279C51.6794 16.5749 51.9197 16.8134 52.2138 16.8134H54.6314C54.9255 16.8134 55.1658 16.5731 55.1658 16.279C55.1658 16.279 55.1658 6.95488 55.1658 6.20702C55.1569 5.52192 55.0797 5.2296 54.9739 4.93009Z" fill="#00B8F5"/>
<path d="M38.6402 2.73499H37.2575V0.494988V0.491403C37.2575 0.2188 37.0387 0 36.7697 0C36.7374 0 36.7069 0.00358644 36.6782 0.0107602C35.1448 0.430425 35.4533 2.55386 32.6537 2.73499H32.591H32.3811C32.3417 2.73499 32.3022 2.74037 32.2646 2.74934H32.2628H32.2646C32.026 2.80314 31.8467 3.01477 31.8467 3.26944V5.6852C31.8467 5.98111 32.087 6.22144 32.3811 6.22144H33.8392L33.8374 16.4709C33.8374 16.7633 34.0741 17 34.3647 17H36.7553C37.0476 17 37.2826 16.7633 37.2826 16.4709V6.22144H38.6366C38.9308 6.22144 39.1711 5.98111 39.1711 5.6852V3.26944C39.1747 2.97352 38.9343 2.73499 38.6402 2.73499Z" fill="#00B8F5"/>
<path d="M30.0377 2.68994H27.6201C27.326 2.68994 27.0857 2.93026 27.0857 3.22439V8.2227C27.0803 8.53117 26.8292 8.78046 26.5207 8.78046H25.5075C25.1954 8.78046 24.9407 8.52758 24.9407 8.21373L24.93 3.22439C24.93 2.93026 24.6896 2.68994 24.3955 2.68994H21.9798C21.6838 2.68994 21.4453 2.93026 21.4453 3.22439V8.70155C21.4453 10.7819 22.9285 12.2651 25.0107 12.2651C25.0107 12.2651 26.5728 12.2651 26.6212 12.2741C26.9027 12.3064 27.1233 12.5431 27.1233 12.8336C27.1233 13.1224 26.9081 13.3573 26.6301 13.3914C26.6176 13.3932 26.605 13.3968 26.5889 13.3986L23.054 13.4111C22.7599 13.4111 22.5196 13.6514 22.5196 13.9456V16.3613C22.5196 16.6554 22.7599 16.8958 23.054 16.8958H27.0068C29.0889 16.8958 30.5721 15.4126 30.5721 13.3322V3.22259C30.5721 2.92847 30.3336 2.68994 30.0377 2.68994Z" fill="#012A72"/>
<path d="M6.80715 2.68994H1.52368C1.23494 2.68994 1 2.92488 1 3.21362V5.58096C1 5.58634 1.00179 5.58993 1.00179 5.58993C1.00179 5.60607 1 5.61683 1 5.62939V13.2246V16.347C1 16.6393 1.2188 16.876 1.48782 16.8832H1.53444H3.95021C4.24612 16.8832 4.48465 16.6447 4.48465 16.3488L4.49362 12.674H6.80536C8.74048 12.674 10.0891 11.3325 10.0891 9.38843V5.97911C10.0909 4.03681 8.74227 2.68994 6.80715 2.68994ZM6.59553 7.11973V8.2478V8.61187C6.59553 8.92393 6.34265 9.1786 6.0288 9.1786L4.49541 9.18039V6.19073H6.0288C6.34086 6.19073 6.59553 6.44361 6.59553 6.75746V7.11973Z" fill="#012A72"/>
<path d="M16.1621 2.68994H12.8083C12.5124 2.68994 12.2703 2.91412 12.2703 3.1921V4.13186L12.2721 4.15159C12.2721 4.15877 12.2703 4.16415 12.2703 4.16415V5.45901C12.2703 5.75313 12.525 5.98987 12.8406 5.98987H16.0347C16.2858 6.02932 16.4867 6.21225 16.5154 6.501V6.81305C16.4867 7.08745 16.2894 7.28652 16.0473 7.30984H14.4673C12.3636 7.30984 10.8643 8.70692 10.8643 10.6689V13.4075V13.4811C10.8643 15.4323 12.1519 16.8186 14.2413 16.8186H18.6245C19.4118 16.8186 20.0485 16.2232 20.0485 15.4897V6.31807C20.0485 4.0942 18.9024 2.68994 16.1621 2.68994ZM16.5477 12.7798V13.1582C16.5477 13.1887 16.5441 13.2174 16.5387 13.2479C16.5333 13.2748 16.5261 13.2999 16.5172 13.3268C16.4418 13.5367 16.2302 13.6909 15.9791 13.6909H14.973C14.6592 13.6909 14.4027 13.4524 14.4027 13.16V12.7045L14.4009 12.6884L14.4027 11.476V11.4742V11.3415V11.0958V11.094C14.4045 10.8017 14.6592 10.5649 14.9712 10.5649H15.9773C16.2912 10.5649 16.5477 10.8035 16.5477 11.0958V12.7798Z" fill="#012A72"/>
</svg>
