<svg width="32" height="32" viewBox="0 0 32 32" fill="none" xmlns="http://www.w3.org/2000/svg">
<path fill-rule="evenodd" clip-rule="evenodd" d="M8.48796 10.5727C7.72752 10.5727 7.11426 11.186 7.11426 11.9342C7.11426 12.6824 7.72752 13.2956 8.48796 13.2956C9.23614 13.2956 9.8494 12.6824 9.8494 11.9342C9.8494 11.186 9.23614 10.5727 8.48796 10.5727M11.7628 7.38379C11.2108 7.38379 10.7693 7.82534 10.7693 8.36501C10.7693 8.91694 11.2108 9.35849 11.7628 9.35849C12.3024 9.35849 12.744 8.91694 12.744 8.36501C12.744 7.82534 12.3024 7.38379 11.7628 7.38379M15.5895 8.99049C15.1725 8.99049 14.8536 9.32165 14.8536 9.7264C14.8536 10.1434 15.1725 10.4623 15.5895 10.4623C15.9942 10.4623 16.3254 10.1434 16.3254 9.7264C16.3254 9.32165 15.9942 8.99049 15.5895 8.99049" fill="white"/>
<path fill-rule="evenodd" clip-rule="evenodd" d="M8.48796 10.5727C7.72752 10.5727 7.11426 11.186 7.11426 11.9342C7.11426 12.6824 7.72752 13.2956 8.48796 13.2956C9.23614 13.2956 9.8494 12.6824 9.8494 11.9342C9.8494 11.186 9.23614 10.5727 8.48796 10.5727M11.7628 7.38379C11.2108 7.38379 10.7693 7.82534 10.7693 8.36501C10.7693 8.91694 11.2108 9.35849 11.7628 9.35849C12.3024 9.35849 12.744 8.91694 12.744 8.36501C12.744 7.82534 12.3024 7.38379 11.7628 7.38379M15.5895 8.99049C15.1725 8.99049 14.8536 9.32165 14.8536 9.7264C14.8536 10.1434 15.1725 10.4623 15.5895 10.4623C15.9942 10.4623 16.3254 10.1434 16.3254 9.7264C16.3254 9.32165 15.9942 8.99049 15.5895 8.99049" fill="white"/>
<path fill-rule="evenodd" clip-rule="evenodd" d="M8.48796 10.5727C7.72752 10.5727 7.11426 11.186 7.11426 11.9342C7.11426 12.6824 7.72752 13.2956 8.48796 13.2956C9.23614 13.2956 9.8494 12.6824 9.8494 11.9342C9.8494 11.186 9.23614 10.5727 8.48796 10.5727M11.7628 7.38379C11.2108 7.38379 10.7693 7.82534 10.7693 8.36501C10.7693 8.91694 11.2108 9.35849 11.7628 9.35849C12.3024 9.35849 12.744 8.91694 12.744 8.36501C12.744 7.82534 12.3024 7.38379 11.7628 7.38379M15.5895 8.99049C15.1725 8.99049 14.8536 9.32165 14.8536 9.7264C14.8536 10.1434 15.1725 10.4623 15.5895 10.4623C15.9942 10.4623 16.3254 10.1434 16.3254 9.7264C16.3254 9.32165 15.9942 8.99049 15.5895 8.99049" fill="#00B8F5"/>
<mask id="mask0_2101_29613" style="mask-type:luminance" maskUnits="userSpaceOnUse" x="0" y="0" width="21" height="25">
<path fill-rule="evenodd" clip-rule="evenodd" d="M0 0H20.6665V24.7019H0V0Z" fill="white"/>
</mask>
<g mask="url(#mask0_2101_29613)">
<path fill-rule="evenodd" clip-rule="evenodd" d="M20.6669 5.5434C20.6669 5.88682 20.386 6.16892 20.0291 6.16892C19.9923 6.16892 19.9555 6.16892 19.92 6.15666L18.2016 7.82473C18.5082 8.21722 18.7916 8.6465 19.0111 9.10031L18.3978 9.45601L18.3377 9.4928C18.0912 9.62772 17.8459 9.76264 17.6006 9.88529C17.0977 8.84275 16.2882 7.97191 15.2825 7.38318C15.0004 7.21147 14.706 7.06429 14.3994 6.9539C13.8352 6.72086 13.2097 6.58594 12.5719 6.54915C12.4492 6.53688 12.3266 6.53688 12.2039 6.53688C12.0813 6.53688 11.9586 6.53688 11.8494 6.54915C11.284 6.57368 10.7443 6.68406 10.2415 6.86804V6.88031C9.92257 6.96616 9.62821 7.10108 9.33384 7.24826C8.89229 7.49357 8.48754 7.77567 8.12081 8.10683C7.9356 8.27854 7.76389 8.45026 7.61671 8.63424C7.31008 8.98993 7.05251 9.37015 6.844 9.78717C6.68455 10.0815 6.5619 10.3759 6.46378 10.6948C6.29206 11.2345 6.20621 11.8109 6.20621 12.4119C6.20621 13.1356 6.34112 13.8224 6.58766 14.448C6.69682 14.7669 6.83173 15.0612 7.00345 15.3433C7.70257 16.5576 8.84323 17.4897 10.1924 17.9558H10.2047C10.5113 18.0662 10.8302 18.1521 11.1614 18.2011C11.1736 18.2134 11.1871 18.2134 11.2104 18.2134V19.5012C11.2104 19.6116 11.2104 19.7232 11.2227 19.8324C10.9529 19.7956 10.6953 19.7588 10.45 19.6975L9.08976 22.532C9.28478 22.7515 9.40743 23.0581 9.40743 23.3893C9.40743 24.1142 8.8187 24.7017 8.09505 24.7017C7.35914 24.7017 6.77041 24.1142 6.77041 23.3893C6.77041 22.6534 7.35914 22.0647 8.09505 22.0647C8.13185 22.0647 8.18091 22.0647 8.2177 22.0769L9.50555 19.4031C8.74511 19.1333 8.03373 18.7285 7.42047 18.2256L6.41472 19.489C6.42698 19.5503 6.43925 19.5994 6.43925 19.6607C6.43925 20.0041 6.15715 20.2874 5.81372 20.2874C5.47029 20.2874 5.18819 20.0041 5.18819 19.6607C5.18819 19.305 5.47029 19.0352 5.81372 19.0352H5.83825L6.86853 17.7473C6.39019 17.2935 5.98543 16.7784 5.65427 16.2141L2.90809 17.9681C2.93139 18.0662 2.94366 18.1766 2.94366 18.2747C2.94366 18.9984 2.35492 19.5871 1.61901 19.5871C0.895362 19.5871 0.306631 18.9984 0.306631 18.2747C0.306631 17.5511 0.895362 16.9501 1.61901 16.9501C1.88885 16.9501 2.13415 17.0237 2.34389 17.1708L5.18819 15.3433C4.93062 14.7546 4.75891 14.1291 4.67305 13.4667L2.51437 13.712C2.40399 13.8715 2.22001 13.9819 2.0115 13.9819C1.66807 13.9819 1.38597 13.6998 1.38597 13.3564C1.38597 13.0129 1.66807 12.7308 2.0115 12.7308C2.20774 12.7308 2.39172 12.8289 2.50211 12.9761L4.59946 12.7431C4.5872 12.6327 4.5872 12.5223 4.5872 12.4119C4.5872 11.6024 4.72211 10.8174 4.96742 10.0815L2.28133 9.00219C2.04829 9.25976 1.6926 9.41921 1.31238 9.41921C0.588731 9.41921 0 8.83048 0 8.10683C0 7.38318 0.588731 6.79445 1.31238 6.79445C2.03726 6.79445 2.62476 7.37092 2.63702 8.0823L5.34764 9.18617C5.62974 8.58517 5.9977 8.03324 6.43925 7.53036L5.22499 6.37743C5.17593 6.3897 5.13913 6.3897 5.09007 6.3897C4.74787 6.3897 4.46454 6.1076 4.46454 5.76417C4.46454 5.40848 4.74787 5.12638 5.09007 5.12638C5.44576 5.12638 5.71682 5.40848 5.71682 5.76417C5.71682 5.7887 5.71682 5.81323 5.70333 5.83776L6.95439 7.00296C7.445 6.53688 8.0092 6.13213 8.62246 5.81323L7.20092 2.97996C7.13836 2.99223 7.07704 2.99223 7.01571 2.99223C6.29206 2.99223 5.70333 2.4035 5.70333 1.67985C5.70333 0.9562 6.29206 0.367469 7.01571 0.367469C7.75163 0.367469 8.34036 0.9562 8.34036 1.67985C8.34036 1.98648 8.22997 2.28084 8.04599 2.50162L9.51782 5.43301C10.2537 5.15091 11.051 4.9792 11.885 4.95467L11.9095 3.22527C11.7501 3.10262 11.652 2.9309 11.652 2.72239C11.652 2.37897 11.9341 2.09687 12.2898 2.09687C12.6332 2.09687 12.9153 2.37897 12.9153 2.72239C12.9153 2.9309 12.8049 3.12715 12.6332 3.23753L12.6087 4.96693C13.4182 4.99146 14.1909 5.16317 14.9157 5.44528L16.0061 2.28085C15.7486 2.04781 15.5768 1.69211 15.5768 1.31189C15.5768 0.588243 16.1656 -0.000488281 16.8892 -0.000488281C17.6264 -0.000488281 18.2139 0.588243 18.2139 1.31189C18.2139 2.02328 17.6374 2.61201 16.9138 2.62427L15.8099 5.83776C16.5213 6.21799 17.1713 6.70859 17.711 7.27279L19.4159 5.62925C19.4048 5.60472 19.4048 5.56793 19.4048 5.5434C19.4048 5.18771 19.6857 4.91787 20.0291 4.91787C20.386 4.91787 20.6669 5.18771 20.6669 5.5434" fill="#00B8F5"/>
</g>
<path fill-rule="evenodd" clip-rule="evenodd" d="M13.9822 19.8453L13.9454 19.6981C13.9577 19.6981 13.9577 19.6859 13.97 19.6859C13.97 19.7349 13.97 19.7963 13.9822 19.8453" fill="#00B8F5"/>
<path fill-rule="evenodd" clip-rule="evenodd" d="M15.5889 10.4625C15.1719 10.4625 14.853 10.1436 14.853 9.72655C14.853 9.32179 15.1719 8.99063 15.5889 8.99063C15.9937 8.99063 16.3249 9.32179 16.3249 9.72655C16.3249 10.1436 15.9937 10.4625 15.5889 10.4625M11.7622 9.35864C11.2103 9.35864 10.7687 8.91709 10.7687 8.36515C10.7687 7.82548 11.2103 7.38394 11.7622 7.38394C12.3019 7.38394 12.7434 7.82548 12.7434 8.36515C12.7434 8.91709 12.3019 9.35864 11.7622 9.35864M8.48742 13.2958C7.72697 13.2958 7.11371 12.6825 7.11371 11.9343C7.11371 11.1862 7.72697 10.5729 8.48742 10.5729C9.2356 10.5729 9.84886 11.1862 9.84886 11.9343C9.84886 12.6825 9.2356 13.2958 8.48742 13.2958M15.2823 7.3839C15.0002 7.21219 14.7059 7.065 14.3992 6.95462C13.835 6.72158 13.2095 6.58666 12.5717 6.54986C12.4491 6.5376 12.3264 6.5376 12.2037 6.5376C12.0811 6.5376 11.9584 6.5376 11.8481 6.54986C11.2839 6.57439 10.7442 6.68478 10.2413 6.86876V6.88102C9.92242 6.96688 9.62805 7.1018 9.33369 7.24898C8.89214 7.49429 8.48739 7.77639 8.11943 8.10755C7.93545 8.27926 7.76374 8.45097 7.61656 8.63495C7.30992 8.99064 7.05236 9.37087 6.84385 9.78788C6.6844 10.0822 6.56175 10.3766 6.46362 10.6955C6.29191 11.2352 6.20605 11.8116 6.20605 12.4126C6.20605 13.1363 6.34097 13.8231 6.58628 14.4487C6.69666 14.7676 6.83158 15.0619 7.00329 15.344C7.70241 16.5583 8.84308 17.4905 10.1923 17.9565H10.2045C10.5111 18.0669 10.83 18.1528 11.1612 18.2018L11.2103 18.1037V17.0366C11.0508 16.9385 10.9159 16.7913 10.8423 16.6319C10.7442 16.4724 10.6951 16.3007 10.6951 16.1045C10.6951 15.712 10.9036 15.3686 11.2103 15.1723V12.9891C11.2103 12.0815 11.8726 11.3088 12.7679 11.1616L14.2398 10.9408C15.4172 10.7568 16.5334 10.4011 17.6004 9.88601C17.0976 8.84346 16.2881 7.97263 15.2823 7.3839" fill="white"/>
<path fill-rule="evenodd" clip-rule="evenodd" d="M9.84843 11.9337C9.84843 12.6819 9.23517 13.2951 8.48699 13.2951C7.72654 13.2951 7.11328 12.6819 7.11328 11.9337C7.11328 11.1855 7.72654 10.5723 8.48699 10.5723C9.23517 10.5723 9.84843 11.1855 9.84843 11.9337" fill="white"/>
<path fill-rule="evenodd" clip-rule="evenodd" d="M11.161 18.2016L11.2101 18.1035V18.2139C11.1868 18.2139 11.1733 18.2139 11.161 18.2016" fill="white"/>
<path fill-rule="evenodd" clip-rule="evenodd" d="M12.7433 8.36501C12.7433 8.91694 12.3017 9.35849 11.762 9.35849C11.2101 9.35849 10.7686 8.91694 10.7686 8.36501C10.7686 7.82534 11.2101 7.38379 11.762 7.38379C12.3017 7.38379 12.7433 7.82534 12.7433 8.36501" fill="white"/>
<path fill-rule="evenodd" clip-rule="evenodd" d="M16.3253 9.72615C16.3253 10.1432 15.9942 10.4621 15.5894 10.4621C15.1724 10.4621 14.8535 10.1432 14.8535 9.72615C14.8535 9.3214 15.1724 8.99023 15.5894 8.99023C15.9942 8.99023 16.3253 9.3214 16.3253 9.72615" fill="white"/>
<path fill-rule="evenodd" clip-rule="evenodd" d="M12.7433 8.36501C12.7433 8.91694 12.3017 9.35849 11.762 9.35849C11.2101 9.35849 10.7686 8.91694 10.7686 8.36501C10.7686 7.82534 11.2101 7.38379 11.762 7.38379C12.3017 7.38379 12.7433 7.82534 12.7433 8.36501" fill="#012A72"/>
<path fill-rule="evenodd" clip-rule="evenodd" d="M16.3253 9.72615C16.3253 10.1432 15.9942 10.4621 15.5894 10.4621C15.1724 10.4621 14.8535 10.1432 14.8535 9.72615C14.8535 9.3214 15.1724 8.99023 15.5894 8.99023C15.9942 8.99023 16.3253 9.3214 16.3253 9.72615" fill="#012A72"/>
<path fill-rule="evenodd" clip-rule="evenodd" d="M9.84843 11.9337C9.84843 12.6819 9.23517 13.2951 8.48699 13.2951C7.72654 13.2951 7.11328 12.6819 7.11328 11.9337C7.11328 11.1855 7.72654 10.5723 8.48699 10.5723C9.23517 10.5723 9.84843 11.1855 9.84843 11.9337" fill="#012A72"/>
<path fill-rule="evenodd" clip-rule="evenodd" d="M11.2097 15.1719V17.0362C11.0503 16.9381 10.9153 16.7909 10.8417 16.6314C10.7436 16.472 10.6946 16.3003 10.6946 16.104C10.6946 15.7115 10.9031 15.3681 11.2097 15.1719" fill="#012A72"/>
<path fill-rule="evenodd" clip-rule="evenodd" d="M13.97 19.6859C13.9577 19.6859 13.9577 19.6981 13.9454 19.6981L13.9822 19.8453C13.97 19.7963 13.97 19.7349 13.97 19.6859" fill="white"/>
<path fill-rule="evenodd" clip-rule="evenodd" d="M13.97 19.6859C13.9577 19.6859 13.9577 19.6981 13.9454 19.6981L13.9822 19.8453C13.97 19.7963 13.97 19.7349 13.97 19.6859" fill="white"/>
<path fill-rule="evenodd" clip-rule="evenodd" d="M13.97 19.6859C13.9577 19.6859 13.9577 19.6981 13.9454 19.6981L13.9822 19.8453C13.97 19.7963 13.97 19.7349 13.97 19.6859" fill="#012A72"/>
<mask id="mask1_2101_29613" style="mask-type:luminance" maskUnits="userSpaceOnUse" x="12" y="8" width="20" height="24">
<path fill-rule="evenodd" clip-rule="evenodd" d="M12.1309 8.70117H31.5343V31.9997H12.1309V8.70117Z" fill="white"/>
</mask>
<g mask="url(#mask1_2101_29613)">
<path fill-rule="evenodd" clip-rule="evenodd" d="M29.6946 19.416C29.6946 19.9668 29.6578 20.5187 29.572 21.0719L29.388 22.2738C29.0323 24.5429 27.7077 26.5176 25.733 27.6951L21.8449 30.0132L17.9323 27.6816C16.1538 26.628 14.8905 24.9219 14.4244 22.9227C14.4122 22.8871 14.3999 22.838 14.3876 22.8013C14.3263 22.6295 14.2895 22.4566 14.265 22.2738L14.0933 21.181C14.0197 20.7407 13.9829 20.3102 13.9829 19.8564V19.8453L13.9461 19.6969C13.9583 19.6969 13.9583 19.6859 13.9706 19.6859V13.7728L14.6575 13.6637C15.8717 13.4797 17.0492 13.1485 18.1776 12.6444C18.5701 12.4862 18.9626 12.2887 19.3428 12.0814C19.4777 12.0201 19.6004 11.9465 19.723 11.8729L19.7843 11.8361L21.759 10.6832L23.9177 11.922C25.4631 12.8174 27.1557 13.3938 28.9342 13.6637L29.6946 13.7728V19.416ZM30.7495 12.0815L29.2041 11.8485C27.6586 11.6154 26.1868 11.1003 24.8254 10.3276L24.3838 10.07L23.0714 9.30956L22.874 9.19918L22.2251 8.81773C22.2006 8.80669 22.1761 8.79442 22.1516 8.79442H22.1393C21.8695 8.65828 21.5628 8.67177 21.293 8.83122L19.3796 9.94735L19.122 10.0933L18.8399 10.2663L18.7909 10.2908C18.5088 10.449 18.2267 10.6097 17.9446 10.7446C16.8162 11.2965 15.6264 11.6645 14.3754 11.8485L12.9036 12.0815C12.462 12.1428 12.1309 12.5353 12.1309 12.9891V19.5007C12.1309 19.6369 12.1309 19.7583 12.1431 19.8945C12.1554 20.4206 12.2045 20.9493 12.278 21.4644L12.4498 22.556C12.8913 25.3648 14.5471 27.8055 16.9879 29.2639L21.3788 31.8641C21.526 31.9512 21.6855 32.0002 21.8449 32.0002C22.0166 32.0002 22.1761 31.9512 22.3233 31.8641L26.6774 29.2774C29.1182 27.8178 30.774 25.3648 31.2021 22.5437L31.3873 21.3405C31.4854 20.704 31.5344 20.0539 31.5344 19.4161V12.9891C31.5344 12.5353 31.2021 12.1428 30.7495 12.0815V12.0815Z" fill="#012A72"/>
</g>
<path fill-rule="evenodd" clip-rule="evenodd" d="M27.0446 18.4102L21.8073 23.5125C21.6356 23.6842 21.4026 23.7823 21.1695 23.7823H21.1327C20.8874 23.7701 20.6544 23.6597 20.4827 23.4757L18.4467 21.2189C18.1032 20.8375 18.1278 20.2622 18.508 19.9176C18.5938 19.8452 18.6797 19.7839 18.7913 19.7471H18.8024C19.147 19.6244 19.5505 19.698 19.8081 19.9924L19.9553 20.1518L20.8384 21.1331L21.2063 21.5378L22.0894 20.6792L25.7567 17.0855C26.1247 16.7298 26.7134 16.7421 27.0568 17.0978C27.4125 17.4657 27.4125 18.0545 27.0446 18.4102V18.4102ZM28.9333 13.6636C27.1549 13.3937 25.4622 12.8173 23.9168 11.9219L21.7581 10.6831L19.7834 11.836L19.7221 11.8728C19.5995 11.9464 19.4768 12.02 19.3419 12.0813C18.9617 12.2899 18.5692 12.4861 18.1779 12.6455C17.0483 13.1484 15.8708 13.4796 14.6566 13.6636L13.9697 13.7739V19.6858C13.9697 19.7348 13.9697 19.7962 13.982 19.8452V19.8575C13.982 20.3113 14.0188 20.7406 14.0924 21.1821L14.2641 22.2737C14.2886 22.4577 14.3254 22.6294 14.3867 22.8012C14.399 22.838 14.4113 22.887 14.4235 22.9238C14.8896 24.923 16.1529 26.6279 17.9314 27.6827L21.844 30.0131L25.7321 27.695C27.7068 26.5175 29.0314 24.5428 29.3871 22.2737L29.5723 21.0718C29.657 20.5198 29.6938 19.9679 29.6938 19.416V13.7739L28.9333 13.6636Z" fill="white"/>
<path fill-rule="evenodd" clip-rule="evenodd" d="M27.0447 18.4101L21.8074 23.5124C21.6357 23.6841 21.4027 23.7822 21.1696 23.7822H21.1328C20.8875 23.77 20.6545 23.6596 20.4828 23.4756L18.4467 21.2188C18.1033 20.8374 18.1278 20.2621 18.5081 19.9175C18.5939 19.8451 18.6798 19.7838 18.7914 19.747H18.8024C19.1471 19.6243 19.5506 19.6979 19.8082 19.9923L19.9554 20.1517L20.8385 21.133L21.2064 21.5377L22.0895 20.6791L25.7568 17.0854C26.1248 16.7297 26.7135 16.742 27.0569 17.0977C27.4126 17.4656 27.4126 18.0544 27.0447 18.4101" fill="#00B8F5"/>
</svg>
